<svg version="1.1" id="Layer_1" xmlns="http://www.w3.org/2000/svg" xmlns:xlink="http://www.w3.org/1999/xlink" x="0px" y="0px"
	 width="100%" viewBox="0 0 364 146" enable-background="new 0 0 364 146" xml:space="preserve">
<path fill="#020203" opacity="1.000000" stroke="none" 
	d="
M284.000000,147.000000 
	C189.333344,147.000000 95.166687,147.000000 1.000025,147.000000 
	C1.000017,98.333351 1.000017,49.666702 1.000008,1.000038 
	C122.333305,1.000026 243.666611,1.000026 364.999939,1.000013 
	C364.999939,49.666630 364.999939,98.333260 364.999969,146.999939 
	C338.166656,147.000000 311.333344,147.000000 284.000000,147.000000 
M83.190720,65.816895 
	C83.190720,65.816895 83.304901,65.770691 83.158279,65.231277 
	C82.845070,65.053375 82.531853,64.875473 82.185135,64.812668 
	C82.185135,64.812668 82.297699,64.771446 82.131020,64.234924 
	C81.806000,64.070099 81.480988,63.905281 81.113411,63.863922 
	C81.113411,63.863922 81.243866,63.858063 81.079247,63.287170 
	C80.753113,63.076942 80.426971,62.866714 79.771423,62.131256 
	C78.752060,61.441166 77.732689,60.751080 77.120369,59.523716 
	C78.150841,58.371891 79.181305,57.220062 80.642426,55.912895 
	C80.917183,55.721909 81.051270,55.459133 81.584427,54.785950 
	C82.104843,53.888504 82.625259,52.991058 83.071404,52.009632 
	C83.071404,52.009632 83.096779,52.118828 83.607208,51.777901 
	C83.803520,51.205860 83.999840,50.633820 84.104095,50.057297 
	C84.104095,50.057297 84.132683,50.144917 84.684433,49.689896 
	C85.448166,44.457592 86.211899,39.225285 87.082855,33.164536 
	C86.820564,32.103943 86.558273,31.043350 86.353790,29.308348 
	C84.738197,22.938055 81.553841,17.592825 76.011391,13.301639 
	C75.844696,13.050863 75.611450,12.911396 74.923141,12.297623 
	C72.018021,10.641941 69.112900,8.986259 65.710381,7.046975 
	C63.456329,6.413142 61.202274,5.779309 58.040421,4.922017 
	C40.361729,4.909045 22.683035,4.896074 4.439536,4.957468 
	C4.351302,5.299778 4.263068,5.642089 4.076641,6.822652 
	C4.125968,8.226245 4.175295,9.629838 4.059968,11.952456 
	C4.109310,20.301805 4.158653,28.651155 4.067163,37.927994 
	C4.104501,52.284874 4.141840,66.641754 4.048477,81.927864 
	C4.048477,100.876762 4.048477,119.825661 4.048477,139.735107 
	C7.032981,136.392532 9.228802,133.933273 11.969158,131.100998 
	C15.175973,127.918930 18.382788,124.736862 22.407690,121.234596 
	C24.368774,121.034866 26.328836,120.675201 28.291117,120.662643 
	C37.582676,120.603203 46.878300,120.798073 56.165848,120.596687 
	C66.074867,120.381828 75.111061,117.712708 82.631775,109.882469 
	C83.094414,109.260712 83.557053,108.638954 84.468956,107.805084 
	C84.767426,107.595840 84.907410,107.309204 84.970558,106.952255 
	C84.970558,106.952255 84.938759,106.876732 85.417442,106.677635 
	C85.766243,106.108994 86.115036,105.540352 86.862534,104.435516 
	C87.014168,104.021088 87.165794,103.606651 87.190018,103.150375 
	C87.190018,103.150375 87.215775,103.281982 87.731606,103.081963 
	C87.883408,102.757828 88.035210,102.433693 88.066460,102.008087 
	C88.066460,102.008087 88.151802,102.140549 88.716492,101.694008 
	C88.940323,100.768715 89.164146,99.843430 89.409660,98.728355 
	C89.409660,98.728355 89.242119,98.636612 89.799477,98.164459 
	C89.937744,97.463318 90.076012,96.762169 90.589790,95.633430 
	C90.638962,95.075485 90.688141,94.517548 91.014008,93.178490 
	C92.756035,83.358932 91.462608,74.302094 84.289284,66.700645 
	C84.289284,66.700645 84.303543,66.771919 84.159019,66.230904 
	C83.845695,66.052948 83.532364,65.874985 83.190720,65.816895 
M279.973206,105.522102 
	C280.035431,105.694809 280.097626,105.867508 280.196045,106.852562 
	C280.383392,107.635094 280.570740,108.417618 280.571442,109.487244 
	C280.569336,109.747269 280.687195,109.930092 280.984314,110.034401 
	C280.984314,110.034401 280.936157,110.069069 280.939758,110.791130 
	C283.862488,117.702469 288.087158,119.824829 296.612854,118.343094 
	C296.762909,118.242958 296.912933,118.142830 297.764038,117.991409 
	C303.367157,115.821075 304.616028,111.087227 305.068024,104.967751 
	C304.941010,103.311539 304.814026,101.655334 304.689880,99.153534 
	C304.677368,98.026291 304.664856,96.899048 304.942261,95.028099 
	C304.837311,93.439919 304.732391,91.851738 304.693054,89.459099 
	C305.556274,87.551704 306.419495,85.644310 307.605194,83.024414 
	C316.042328,95.084541 323.723083,106.111565 331.482971,117.082581 
	C332.275757,118.203423 333.525024,119.780693 334.593262,119.805214 
	C343.942200,120.019867 353.298126,119.929352 363.647888,119.929352 
	C350.917572,101.479851 338.868408,84.017509 326.677277,66.349411 
	C338.730347,53.369835 350.602722,40.584808 363.196075,27.023417 
	C352.215179,27.023417 342.611023,26.928532 333.013123,27.130213 
	C331.642456,27.159014 330.027710,28.365225 328.991882,29.465300 
	C322.039825,36.848541 315.223541,44.359467 308.334015,51.801907 
	C307.521332,52.679798 306.530762,53.392990 305.258087,54.499493 
	C305.258087,42.165714 305.307587,30.522495 305.240051,18.879955 
	C305.197632,11.562637 300.006989,4.887908 293.065308,3.903803 
	C288.883301,3.310934 284.548676,3.794775 280.170563,3.794775 
	C280.170563,19.072521 280.170563,34.025387 279.987640,49.887669 
	C280.052521,53.594727 280.117371,57.301785 280.063965,61.900024 
	C280.106110,64.593399 280.148254,67.286774 280.001709,70.772560 
	C280.065277,71.851013 280.128845,72.929459 280.071747,74.936745 
	C280.127777,81.284058 280.183777,87.631378 280.038818,94.773643 
	C280.099640,95.858620 280.160461,96.943596 280.081573,98.842178 
	C280.125610,100.213379 280.169678,101.584587 280.032776,103.617874 
	C280.054718,104.073875 280.076660,104.529877 279.973206,105.522102 
M146.897079,113.006081 
	C146.897079,113.006081 146.856705,113.105606 146.945496,113.774513 
	C148.846558,115.548782 150.747635,117.323044 153.195923,119.575310 
	C154.135849,119.728813 155.075790,119.882324 156.292038,120.195740 
	C156.292038,120.195740 156.605331,120.134186 156.951492,120.639290 
	C157.442581,120.471367 157.933670,120.303436 158.699554,120.249214 
	C158.699554,120.249214 158.969101,120.123589 159.752899,120.277748 
	C162.372162,119.092773 164.991440,117.907791 168.202606,116.339546 
	C169.451233,113.027458 171.525864,109.776581 171.776779,106.390549 
	C172.301483,99.309891 171.864502,92.157951 171.983231,84.105133 
	C171.990784,78.274254 172.110031,72.440712 171.971542,66.613304 
	C171.854752,61.697777 171.438797,56.789364 171.167694,51.892151 
	C171.167694,51.892151 171.178604,51.862103 171.283234,51.411049 
	C171.283234,51.411049 171.028351,51.024487 171.157593,50.310173 
	C170.719437,49.209530 170.281265,48.108887 169.833725,46.499214 
	C169.594513,46.274490 169.355301,46.049767 169.060501,45.924606 
	C169.060501,45.924606 169.167648,45.885612 169.001175,45.211918 
	C163.170486,39.637703 157.140457,38.915733 150.626129,43.184402 
	C150.409744,43.432491 150.193359,43.680576 149.441238,44.044212 
	C149.257919,44.347103 149.074600,44.649994 148.950577,44.951725 
	C148.950577,44.951725 148.912521,44.905514 148.282501,45.239929 
	C143.957321,49.839043 144.952621,55.524212 144.890686,61.946934 
	C144.959366,76.619667 145.028046,91.292404 144.958496,106.708702 
	C145.299561,108.133530 145.640625,109.558357 145.869171,111.616165 
	C146.213196,112.115242 146.557205,112.614319 146.897079,113.006081 
M162.820099,5.766592 
	C162.633224,5.627693 162.469833,5.651166 161.562790,5.369507 
	C158.655823,5.854220 155.748840,6.338933 152.226776,6.946248 
	C151.488235,7.647968 150.749695,8.349689 149.503723,9.137623 
	C149.358444,9.429070 149.213165,9.720517 149.008850,10.014790 
	C149.008850,10.014790 149.028259,10.070891 148.400528,10.376336 
	C143.838150,16.922550 144.131577,23.175499 149.243073,28.331238 
	C153.864456,32.992619 159.725327,33.333202 165.583191,28.945278 
	C165.682571,28.669409 165.758057,28.387150 166.518967,27.911701 
	C168.314850,24.625050 170.110733,21.338396 171.992203,17.267420 
	C171.406784,11.591125 168.762802,7.557360 162.996918,5.992221 
	C162.996918,5.992221 162.979767,5.996832 162.820099,5.766592 
M219.912979,51.961647 
	C232.488327,47.911156 241.039413,54.133366 241.058777,67.370270 
	C241.081924,83.187332 241.077744,99.004433 241.104370,114.821495 
	C241.107071,116.421913 241.240204,118.022118 241.309601,119.551712 
	C249.829086,119.551712 257.902191,119.551712 266.230988,119.551712 
	C266.230988,98.074463 266.326111,76.938934 266.198853,55.804752 
	C266.108063,40.721413 254.812225,27.970100 239.647659,27.318199 
	C221.946014,26.557230 204.186584,27.140446 186.489273,27.140446 
	C186.313538,27.551188 186.081223,27.840866 186.080978,28.130743 
	C186.058090,54.758350 185.946671,81.386986 186.201035,108.012123 
	C186.228317,110.868134 187.844147,114.139709 189.684555,116.453873 
	C193.042801,120.676651 197.874756,121.257240 202.855255,119.545883 
	C208.325546,117.666206 211.626953,112.984459 211.671860,106.947250 
	C211.773392,93.295204 211.750488,79.642220 211.769424,65.989601 
	C211.777618,60.081650 213.859924,55.305656 219.912979,51.961647 
M106.033737,77.498650 
	C106.033737,91.549301 106.033737,105.599953 106.033737,119.773819 
	C110.205200,119.773819 113.543411,119.974915 116.849609,119.735016 
	C125.717949,119.091522 130.714554,113.985878 130.732590,105.328949 
	C130.792648,76.518448 130.699051,47.707645 130.736191,18.897051 
	C130.744476,12.475442 127.835007,7.682077 122.033218,5.673247 
	C117.059853,3.951254 111.571335,3.717136 106.029488,2.777326 
	C106.029488,28.235928 106.029488,52.367058 106.033737,77.498650 
M318.842987,142.708359 
	C322.966156,134.777664 327.004944,142.516403 331.873016,143.643463 
	C329.651855,138.042328 327.938019,133.404999 325.970367,128.877975 
	C324.804047,126.194588 322.516541,125.747688 321.242493,128.430695 
	C319.188782,132.755554 317.839081,137.417603 316.316010,141.978638 
	C316.265900,142.128693 317.566071,142.729645 318.842987,142.708359 
M357.083038,137.837311 
	C357.058167,142.703552 353.624725,140.710114 351.232513,140.698853 
	C350.129517,140.693665 349.027710,140.437744 347.925385,140.295486 
	C347.827759,140.852402 347.730103,141.409317 347.632446,141.966248 
	C348.996765,142.422272 350.330566,143.093521 351.731384,143.291901 
	C355.223877,143.786484 359.203369,144.402176 360.459961,139.944077 
	C361.784698,135.244064 357.842438,134.625168 354.589691,133.771347 
	C354.268921,133.687134 353.867737,133.647537 353.661591,133.434555 
	C352.848694,132.594742 352.098785,131.693985 351.325500,130.815842 
	C352.451233,130.322113 353.541992,129.551102 354.711426,129.403519 
	C356.239655,129.210602 357.830200,129.510910 359.393921,129.599045 
	C359.454437,128.870529 359.514954,128.142014 359.575470,127.413498 
	C356.832550,127.295448 354.011169,126.751610 351.379333,127.236488 
	C350.035797,127.484016 348.121460,129.566116 348.106537,130.838257 
	C348.088043,132.413483 349.435120,134.473938 350.810974,135.470581 
	C352.329498,136.570572 354.549103,136.702759 357.083038,137.837311 
M305.458130,133.090469 
	C302.499298,133.653488 301.738251,132.280334 302.014496,129.539749 
	C302.095001,128.740723 301.129364,127.836258 300.643280,126.980118 
	C300.070709,127.769730 299.036438,128.540695 299.003693,129.352097 
	C298.842682,133.339584 298.846008,137.343002 299.047852,141.327774 
	C299.086395,142.089294 300.278107,142.792389 301.712738,144.380035 
	C301.943695,140.729797 302.085785,138.483978 302.230560,136.195831 
	C304.751404,136.195831 307.009949,136.195831 309.503510,136.195831 
	C309.673187,138.633865 309.828888,140.871323 309.984619,143.108780 
	C310.808868,143.222092 311.633087,143.335388 312.457336,143.448700 
	C313.330658,138.811508 312.814545,133.907227 312.761993,129.142258 
	C312.753204,128.349030 311.446228,127.570122 310.555023,126.580055 
	C308.898193,129.356995 311.662842,133.868301 305.458130,133.090469 
M283.075500,140.089172 
	C287.620361,144.523132 292.020660,144.815430 297.283966,140.065674 
	C295.212769,140.065674 294.106934,140.173553 293.029907,140.043274 
	C290.767853,139.769623 287.606750,140.133301 286.511566,138.820160 
	C285.289307,137.354614 284.980469,133.587753 286.053772,132.167038 
	C287.196350,130.654663 290.409576,130.659775 292.745178,130.116180 
	C293.837860,129.861862 294.992889,129.875473 296.119659,129.767639 
	C292.722198,126.256821 288.993164,125.658676 285.584564,127.915512 
	C281.435486,130.662659 280.868256,134.847870 283.075500,140.089172 
M339.612671,143.130325 
	C339.896423,138.752487 340.180145,134.374649 340.457703,130.092621 
	C342.227844,129.582626 343.877869,129.107239 345.527863,128.631866 
	C345.414398,128.275803 345.300934,127.919754 345.187469,127.563705 
	C340.672394,127.563705 336.157318,127.563705 331.642242,127.563705 
	C331.614380,128.005707 331.586548,128.447693 331.558685,128.889694 
	C333.355469,129.253113 335.152222,129.616531 337.200806,130.030899 
	C337.292908,131.843094 337.269653,133.657806 337.502960,135.438904 
	C337.846100,138.058899 338.372314,140.654922 339.612671,143.130325 
z"/>
<path fill="#F9FCFC" opacity="1.000000" stroke="none" 
	d="
M219.546463,52.117378 
	C213.859924,55.305656 211.777618,60.081650 211.769424,65.989601 
	C211.750488,79.642220 211.773392,93.295204 211.671860,106.947250 
	C211.626953,112.984459 208.325546,117.666206 202.855255,119.545883 
	C197.874756,121.257240 193.042801,120.676651 189.684555,116.453873 
	C187.844147,114.139709 186.228317,110.868134 186.201035,108.012123 
	C185.946671,81.386986 186.058090,54.758350 186.080978,28.130743 
	C186.081223,27.840866 186.313538,27.551188 186.489273,27.140446 
	C204.186584,27.140446 221.946014,26.557230 239.647659,27.318199 
	C254.812225,27.970100 266.108063,40.721413 266.198853,55.804752 
	C266.326111,76.938934 266.230988,98.074463 266.230988,119.551712 
	C257.902191,119.551712 249.829086,119.551712 241.309601,119.551712 
	C241.240204,118.022118 241.107071,116.421913 241.104370,114.821495 
	C241.077744,99.004433 241.081924,83.187332 241.058777,67.370270 
	C241.039413,54.133366 232.488327,47.911156 219.546463,52.117378 
z"/>
<path fill="#F9FCFC" opacity="1.000000" stroke="none" 
	d="
M280.170563,48.978249 
	C280.170563,34.025387 280.170563,19.072521 280.170563,3.794775 
	C284.548676,3.794775 288.883301,3.310934 293.065308,3.903803 
	C300.006989,4.887908 305.197632,11.562637 305.240051,18.879955 
	C305.307587,30.522495 305.258087,42.165714 305.258087,54.499493 
	C306.530762,53.392990 307.521332,52.679798 308.334015,51.801907 
	C315.223541,44.359467 322.039825,36.848541 328.991882,29.465300 
	C330.027710,28.365225 331.642456,27.159014 333.013123,27.130213 
	C342.611023,26.928532 352.215179,27.023417 363.196075,27.023417 
	C350.602722,40.584808 338.730347,53.369835 326.677277,66.349411 
	C338.868408,84.017509 350.917572,101.479851 363.647888,119.929352 
	C353.298126,119.929352 343.942200,120.019867 334.593262,119.805214 
	C333.525024,119.780693 332.275757,118.203423 331.482971,117.082581 
	C323.723083,106.111565 316.042328,95.084541 307.605194,83.024414 
	C306.419495,85.644310 305.556274,87.551704 304.473938,90.106697 
	C304.387299,92.426796 304.519836,94.099304 304.652344,95.771805 
	C304.664856,96.899048 304.677368,98.026291 304.319550,99.582863 
	C301.985992,99.317513 300.022797,98.622841 297.914490,97.646713 
	C295.530975,97.348167 293.292572,97.331093 290.767456,97.258133 
	C290.094360,97.188812 289.707977,97.175392 288.913940,97.114029 
	C287.370026,97.793190 286.233826,98.520309 285.000916,99.449326 
	C284.702667,99.892776 284.445953,100.033890 283.862762,99.901199 
	C282.748444,99.153702 281.905365,98.579575 281.044067,97.649338 
	C280.763824,96.188385 280.501801,95.083534 280.239807,93.978691 
	C280.183777,87.631378 280.127777,81.284058 280.347870,74.237289 
	C280.479462,72.351936 280.334930,71.166039 280.190399,69.980148 
	C280.148254,67.286774 280.106110,64.593399 280.362244,61.128616 
	C280.497162,56.564220 280.333862,52.771233 280.170563,48.978249 
z"/>
<path fill="#F8FAFB" opacity="1.000000" stroke="none" 
	d="
M106.031616,76.998421 
	C106.029488,52.367058 106.029488,28.235928 106.029488,2.777326 
	C111.571335,3.717136 117.059853,3.951254 122.033218,5.673247 
	C127.835007,7.682077 130.744476,12.475442 130.736191,18.897051 
	C130.699051,47.707645 130.792648,76.518448 130.732590,105.328949 
	C130.714554,113.985878 125.717949,119.091522 116.849609,119.735016 
	C113.543411,119.974915 110.205200,119.773819 106.033737,119.773819 
	C106.033737,105.599953 106.033737,91.549301 106.031616,76.998421 
z"/>
<path fill="#35ACA4" opacity="1.000000" stroke="none" 
	d="
M76.713326,60.060989 
	C77.732689,60.751080 78.752060,61.441166 80.018921,62.682030 
	C80.592232,63.441219 80.918045,63.649639 81.243866,63.858063 
	C81.243866,63.858063 81.113411,63.863922 81.208847,64.081551 
	C81.635414,64.456604 81.966560,64.614021 82.297699,64.771446 
	C82.297699,64.771446 82.185135,64.812668 82.251251,65.043289 
	C82.646545,65.439514 82.975723,65.605103 83.304901,65.770691 
	C83.304901,65.770691 83.190720,65.816895 83.253616,66.045303 
	C83.645523,66.439781 83.974533,66.605850 84.303543,66.771919 
	C84.303543,66.771919 84.289284,66.700645 84.177460,67.050842 
	C83.775711,67.789398 83.530464,68.470543 83.189194,68.522644 
	C77.091255,69.453560 70.933090,70.069283 64.898354,71.296165 
	C62.462635,71.791359 60.291405,73.587509 57.652908,74.812866 
	C56.851814,74.747581 56.397625,74.661041 55.606785,74.369736 
	C51.530903,74.286751 47.791676,74.408531 43.590622,74.598083 
	C39.076862,74.615585 35.024929,74.565331 30.807985,74.365166 
	C30.104530,74.313354 29.566084,74.411453 28.658588,74.603943 
	C28.039406,74.742188 27.789268,74.786041 27.347324,74.862976 
	C27.155519,74.896042 26.779716,75.006088 26.486172,74.833321 
	C24.502909,73.453873 22.786837,71.193047 21.128326,71.234512 
	C15.757595,71.368805 10.407994,72.348167 5.036635,72.541443 
	C5.030802,68.388229 5.038588,64.695557 5.460590,61.002380 
	C10.743876,60.673210 15.616199,60.031994 20.481316,60.082657 
	C29.849516,60.180218 39.212734,60.702702 48.580517,60.956657 
	C49.862556,60.991409 51.149658,60.370762 52.450710,60.275059 
	C54.813900,60.101223 57.189137,60.036827 59.559708,60.028389 
	C65.277466,60.008034 70.995438,60.046337 76.713326,60.060989 
z"/>
<path fill="#33A0BF" opacity="1.000000" stroke="none" 
	d="
M90.737320,93.959602 
	C90.688141,94.517548 90.638962,95.075485 90.084198,96.048569 
	C89.466438,97.188004 89.354279,97.912308 89.242119,98.636612 
	C89.242119,98.636612 89.409660,98.728355 89.062912,99.008560 
	C88.528038,100.239357 88.339920,101.189949 88.151802,102.140549 
	C88.151802,102.140549 88.066460,102.008087 87.859566,102.149826 
	C87.507042,102.621712 87.361412,102.951843 87.215775,103.281982 
	C87.215775,103.281982 87.190018,103.150375 86.961121,103.228271 
	C86.468933,103.803810 86.205643,104.301453 85.721375,105.002029 
	C85.313179,105.762215 85.125969,106.319473 84.938751,106.876732 
	C84.938759,106.876732 84.970558,106.952255 84.689476,106.954819 
	C84.408394,106.957390 83.927719,106.972603 83.672485,106.774818 
	C82.163582,106.010384 80.946884,105.323036 79.642059,104.923424 
	C78.888428,104.692627 77.362633,105.176537 77.257523,104.912140 
	C76.113823,102.035301 74.713150,103.818222 72.969719,104.221924 
	C69.357971,105.058228 64.548653,106.815155 62.127148,105.253860 
	C58.601776,102.980843 55.398430,103.079849 51.898960,103.032326 
	C44.269039,102.928703 36.636696,102.987610 29.005449,103.012291 
	C27.690235,103.016548 25.751358,102.654594 25.162495,103.354828 
	C21.503794,107.705544 18.914278,104.278305 15.926374,102.524193 
	C14.823033,101.876465 13.236394,101.467606 12.024667,101.712906 
	C9.647340,102.194176 7.378359,103.210655 5.048365,103.555977 
	C5.040339,100.408081 5.048490,97.709854 5.476531,95.007645 
	C10.094303,95.133469 14.723412,93.213722 17.983538,98.276276 
	C18.557257,97.139755 18.749653,96.532799 19.120087,96.067619 
	C20.184605,94.730820 21.321121,93.451355 22.429348,92.149361 
	C23.348925,93.486580 24.435522,94.741020 25.148935,96.180420 
	C26.219362,98.340103 27.239620,100.125229 30.398527,98.119400 
	C38.009453,98.080017 45.150528,98.176109 52.285686,98.013184 
	C55.521172,97.939301 58.744930,97.351616 62.351578,96.997284 
	C63.822170,96.334686 64.915192,95.671814 66.359375,94.946007 
	C71.248573,93.356255 75.786613,91.829430 80.738579,90.163338 
	C80.596611,92.257042 80.483452,93.925804 80.326393,96.242096 
	C83.935654,94.284210 86.961090,92.643021 89.989502,91.320587 
	C90.240753,92.412758 90.489037,93.186180 90.737320,93.959602 
z"/>
<path fill="#39B09B" opacity="1.000000" stroke="none" 
	d="
M76.916847,59.792351 
	C70.995438,60.046337 65.277466,60.008034 59.559708,60.028389 
	C57.189137,60.036827 54.813900,60.101223 52.450710,60.275059 
	C51.149658,60.370762 49.862556,60.991409 48.580517,60.956657 
	C39.212734,60.702702 29.849516,60.180218 20.481316,60.082657 
	C15.616199,60.031994 10.743876,60.673210 5.447199,60.557587 
	C5.032451,57.739410 5.045312,55.365513 5.464440,53.052013 
	C9.963131,53.393394 14.098088,54.155457 18.134117,53.798607 
	C21.198196,53.527699 24.136360,51.832676 27.587387,50.833389 
	C33.154217,50.964214 38.286430,51.358192 43.368004,51.010971 
	C48.527645,50.658421 53.637314,49.574501 58.837563,49.196205 
	C59.604050,54.661240 63.460342,55.651779 67.549263,55.920517 
	C71.755173,56.196949 75.989738,56.037144 80.211769,56.068230 
	C79.181305,57.220062 78.150841,58.371891 76.916847,59.792351 
z"/>
<path fill="#5DC769" opacity="1.000000" stroke="none" 
	d="
M58.948223,5.145476 
	C61.202274,5.779309 63.456329,6.413142 65.983612,7.556379 
	C67.849152,9.706548 69.441467,11.347311 70.696236,13.133578 
	C67.599983,12.891504 64.841278,12.503926 61.467258,12.029902 
	C59.032108,16.464323 54.620815,12.667985 50.807163,12.977868 
	C35.881668,14.190662 20.950407,10.000974 6.016039,12.587405 
	C5.971067,7.580776 8.138159,5.846307 12.821725,5.924500 
	C26.445755,6.151954 40.076241,6.032715 53.703747,5.962509 
	C55.453262,5.953496 57.200130,5.430417 58.948223,5.145476 
z"/>
<path fill="#57C572" opacity="1.000000" stroke="none" 
	d="
M6.019923,12.988698 
	C20.950407,10.000974 35.881668,14.190662 50.807163,12.977868 
	C54.620815,12.667985 59.032108,16.464323 61.467258,12.029902 
	C64.841278,12.503926 67.599983,12.891504 71.122696,13.134338 
	C73.028343,12.954144 74.169998,12.918692 75.311646,12.883240 
	C75.611450,12.911396 75.844696,13.050863 76.065376,13.885738 
	C76.416451,15.976066 76.713539,17.482294 76.735725,19.273064 
	C73.874153,19.389135 71.281586,19.283178 68.701988,19.039762 
	C62.477547,18.452412 56.260601,17.294163 50.038059,17.276562 
	C35.359535,17.235041 20.679514,17.724527 5.994461,17.746784 
	C5.985246,17.326029 5.981671,17.157724 5.982666,16.589550 
	C5.998132,15.122684 6.009027,14.055692 6.019923,12.988698 
z"/>
<path fill="#38B794" opacity="1.000000" stroke="none" 
	d="
M80.427094,55.990562 
	C75.989738,56.037144 71.755173,56.196949 67.549263,55.920517 
	C63.460342,55.651779 59.604050,54.661240 58.869686,49.209244 
	C58.833111,48.836945 58.800499,48.897335 59.063797,48.815697 
	C59.524513,48.435760 59.721928,48.137466 59.930756,47.887077 
	C59.942169,47.934982 59.843681,47.933586 60.114510,47.802162 
	C60.552105,47.315739 60.718872,46.960743 60.934910,46.319252 
	C61.402824,44.984680 61.821465,43.936600 62.705383,42.908951 
	C66.459763,44.734142 69.336922,45.049156 72.949867,42.770374 
	C76.846321,40.312782 83.789497,45.275883 84.132683,50.144917 
	C84.132683,50.144917 84.104095,50.057297 83.861343,50.201103 
	C83.444664,50.936214 83.270721,51.527523 83.096779,52.118828 
	C83.096779,52.118828 83.071404,52.009632 82.742813,52.074093 
	C81.957710,53.133892 81.501205,54.129230 81.044693,55.124569 
	C81.051270,55.459133 80.917183,55.721909 80.427094,55.990562 
z"/>
<path fill="#4E73D0" opacity="1.000000" stroke="none" 
	d="
M284.134033,100.074577 
	C284.445953,100.033890 284.702667,99.892776 285.305023,99.389084 
	C286.106140,99.028847 286.506439,98.930756 287.037018,99.079208 
	C287.637817,99.574677 288.108337,99.823593 288.698425,100.076797 
	C288.818054,100.081078 289.032898,99.975494 288.954742,100.365433 
	C289.542053,102.218216 290.207550,103.681061 291.173187,105.437370 
	C294.649200,105.837715 297.825073,105.944595 301.216095,106.332672 
	C303.986389,108.669670 303.374237,110.803604 301.554810,112.930252 
	C300.080231,114.653816 298.561920,116.339973 297.062988,118.042702 
	C296.912933,118.142830 296.762909,118.242958 296.158569,118.033844 
	C290.781555,115.172752 285.858856,112.620911 280.936157,110.069077 
	C280.936157,110.069069 280.984314,110.034401 280.978394,109.888481 
	C280.962677,109.537376 280.891235,109.356575 280.758118,109.200150 
	C280.570740,108.417618 280.383392,107.635094 280.350037,106.332054 
	C280.712524,105.627853 280.878967,105.411743 281.077576,104.870506 
	C281.398315,104.036865 281.644867,103.495949 282.104797,102.735016 
	C282.923431,101.701523 283.528748,100.888054 284.134033,100.074577 
z"/>
<path fill="#36A6AB" opacity="1.000000" stroke="none" 
	d="
M90.875664,93.569046 
	C90.489037,93.186180 90.240753,92.412758 89.994980,90.865082 
	C89.798965,86.984810 89.934662,83.811546 89.326180,80.788048 
	C88.332382,75.849930 85.060410,74.300766 80.271683,75.821091 
	C78.967735,76.235069 77.438904,76.334206 76.084381,76.122635 
	C71.779388,75.450211 68.709045,76.791779 66.935600,80.960945 
	C66.747284,80.925606 66.364517,80.907280 66.181595,80.611023 
	C63.332390,78.473717 60.666100,76.632660 57.999809,74.791611 
	C60.291405,73.587509 62.462635,71.791359 64.898354,71.296165 
	C70.933090,70.069283 77.091255,69.453560 83.189194,68.522644 
	C83.530464,68.470543 83.775711,67.789398 84.213753,67.052750 
	C91.462608,74.302094 92.756035,83.358932 90.875664,93.569046 
z"/>
<path fill="#3FBA8B" opacity="1.000000" stroke="none" 
	d="
M84.408554,49.917404 
	C83.789497,45.275883 76.846321,40.312782 72.949867,42.770374 
	C69.336922,45.049156 66.459763,44.734142 62.742901,42.908913 
	C62.315136,42.888435 62.328705,42.828854 62.670372,42.469013 
	C65.693108,33.830029 68.048752,32.760567 76.584702,35.579281 
	C77.862686,36.001293 79.468407,35.638447 80.880905,35.396095 
	C82.932335,35.044132 84.945915,34.471508 86.975632,33.992981 
	C86.211899,39.225285 85.448166,44.457592 84.408554,49.917404 
z"/>
<path fill="#46BB84" opacity="1.000000" stroke="none" 
	d="
M87.029243,33.578758 
	C84.945915,34.471508 82.932335,35.044132 80.880905,35.396095 
	C79.468407,35.638447 77.862686,36.001293 76.584702,35.579281 
	C68.048752,32.760567 65.693108,33.830029 62.762154,42.048531 
	C63.644524,36.257328 61.200668,32.210239 56.992268,29.160360 
	C65.995483,29.340130 74.491432,25.487673 83.311790,29.002005 
	C84.500626,29.342798 85.398300,29.662779 86.295982,29.982758 
	C86.558273,31.043350 86.820564,32.103943 87.029243,33.578758 
z"/>
<path fill="#B64F5E" opacity="1.000000" stroke="none" 
	d="
M165.276733,29.262976 
	C159.725327,33.333202 153.864456,32.992619 149.243073,28.331238 
	C144.131577,23.175499 143.838150,16.922550 148.734055,10.545910 
	C149.051422,11.145964 149.035248,11.576443 148.846664,12.368938 
	C147.514221,19.885469 146.420822,18.389736 155.076691,22.361969 
	C157.123077,24.489937 159.014648,26.305830 161.162628,28.363251 
	C162.574402,28.697794 163.729782,28.790813 164.982819,28.978880 
	C165.080460,29.073925 165.276733,29.262976 165.276733,29.262976 
z"/>
<path fill="#D3DFE3" opacity="1.000000" stroke="none" 
	d="
M318.539917,142.914383 
	C317.566071,142.729645 316.265900,142.128693 316.316010,141.978638 
	C317.839081,137.417603 319.188782,132.755554 321.242493,128.430695 
	C322.516541,125.747688 324.804047,126.194588 325.970367,128.877975 
	C327.938019,133.404999 329.651855,138.042328 331.873016,143.643463 
	C327.004944,142.516403 322.966156,134.777664 318.539917,142.914383 
z"/>
<path fill="#D0A948" opacity="1.000000" stroke="none" 
	d="
M145.059708,61.028072 
	C144.952621,55.524212 143.957321,49.839043 148.626953,45.481030 
	C148.131439,48.543114 147.332153,51.377056 146.439148,54.181156 
	C145.663971,56.615227 146.130585,58.086388 149.028564,58.000874 
	C150.351135,57.961849 151.676117,58.003784 152.999237,58.437519 
	C153.333908,61.243862 153.669342,63.621693 154.002151,66.374634 
	C153.999557,67.499847 153.999603,68.249947 153.649780,69.039825 
	C150.869431,71.052666 148.438950,73.025719 146.001862,74.535736 
	C145.683395,69.724495 145.371552,65.376282 145.059708,61.028072 
z"/>
<path fill="#D8E3E6" opacity="1.000000" stroke="none" 
	d="
M356.773193,137.546906 
	C354.549103,136.702759 352.329498,136.570572 350.810974,135.470581 
	C349.435120,134.473938 348.088043,132.413483 348.106537,130.838257 
	C348.121460,129.566116 350.035797,127.484016 351.379333,127.236488 
	C354.011169,126.751610 356.832550,127.295448 359.575470,127.413498 
	C359.514954,128.142014 359.454437,128.870529 359.393921,129.599045 
	C357.830200,129.510910 356.239655,129.210602 354.711426,129.403519 
	C353.541992,129.551102 352.451233,130.322113 351.325500,130.815842 
	C352.098785,131.693985 352.848694,132.594742 353.661591,133.434555 
	C353.867737,133.647537 354.268921,133.687134 354.589691,133.771347 
	C357.842438,134.625168 361.784698,135.244064 360.459961,139.944077 
	C359.203369,144.402176 355.223877,143.786484 351.731384,143.291901 
	C350.330566,143.093521 348.996765,142.422272 347.632446,141.966248 
	C347.730103,141.409317 347.827759,140.852402 347.925385,140.295486 
	C349.027710,140.437744 350.129517,140.693665 351.232513,140.698853 
	C353.624725,140.710114 357.058167,142.703552 356.773193,137.546906 
z"/>
<path fill="#3B82AE" opacity="1.000000" stroke="none" 
	d="
M82.038086,110.038269 
	C75.111061,117.712708 66.074867,120.381828 56.165848,120.596687 
	C46.878300,120.798073 37.582676,120.603203 28.291117,120.662643 
	C26.328836,120.675201 24.368774,121.034866 21.851286,121.247849 
	C21.294882,121.261093 20.986591,120.981667 21.194921,120.645157 
	C23.265976,119.873428 25.124462,119.084267 26.992132,119.061890 
	C37.148235,118.940208 47.316242,119.260284 57.458961,118.873108 
	C61.015507,118.737350 64.511826,117.023705 68.328445,116.007683 
	C69.086212,115.672142 69.551170,115.359497 70.353607,115.034538 
	C71.473267,114.690353 72.255440,114.358490 73.408394,114.018875 
	C76.449272,112.599686 79.119377,111.188248 81.851562,109.842239 
	C81.913635,109.907684 82.038086,110.038269 82.038086,110.038269 
z"/>
<path fill="#DDE8EC" opacity="1.000000" stroke="none" 
	d="
M305.912231,133.063232 
	C311.662842,133.868301 308.898193,129.356995 310.555023,126.580055 
	C311.446228,127.570122 312.753204,128.349030 312.761993,129.142258 
	C312.814545,133.907227 313.330658,138.811508 312.457336,143.448700 
	C311.633087,143.335388 310.808868,143.222092 309.984619,143.108780 
	C309.828888,140.871323 309.673187,138.633865 309.503510,136.195831 
	C307.009949,136.195831 304.751404,136.195831 302.230560,136.195831 
	C302.085785,138.483978 301.943695,140.729797 301.712738,144.380035 
	C300.278107,142.792389 299.086395,142.089294 299.047852,141.327774 
	C298.846008,137.343002 298.842682,133.339584 299.003693,129.352097 
	C299.036438,128.540695 300.070709,127.769730 300.643280,126.980118 
	C301.129364,127.836258 302.095001,128.740723 302.014496,129.539749 
	C301.738251,132.280334 302.499298,133.653488 305.912231,133.063232 
z"/>
<path fill="#D9E4E8" opacity="1.000000" stroke="none" 
	d="
M282.892456,139.732361 
	C280.868256,134.847870 281.435486,130.662659 285.584564,127.915512 
	C288.993164,125.658676 292.722198,126.256821 296.119659,129.767639 
	C294.992889,129.875473 293.837860,129.861862 292.745178,130.116180 
	C290.409576,130.659775 287.196350,130.654663 286.053772,132.167038 
	C284.980469,133.587753 285.289307,137.354614 286.511566,138.820160 
	C287.606750,140.133301 290.767853,139.769623 293.029907,140.043274 
	C294.106934,140.173553 295.212769,140.065674 297.283966,140.065674 
	C292.020660,144.815430 287.620361,144.523132 282.892456,139.732361 
z"/>
<path fill="#DACF47" opacity="1.000000" stroke="none" 
	d="
M169.843094,47.008240 
	C170.281265,48.108887 170.719437,49.209530 170.854706,50.724976 
	C170.760757,51.380550 170.969681,51.621330 171.178604,51.862106 
	C171.178604,51.862103 171.167694,51.892151 171.094330,52.293167 
	C170.989578,53.793053 170.958191,54.891922 170.668289,56.272079 
	C170.271149,58.372517 170.132523,60.191658 169.675461,61.981888 
	C168.570724,61.634659 167.784454,61.316334 166.960419,60.648331 
	C165.947617,58.200443 164.972549,56.102234 163.996948,53.583000 
	C163.657425,49.768070 163.318436,46.374161 163.297058,43.114517 
	C165.465652,44.127724 167.316650,45.006668 169.167648,45.885612 
	C169.167648,45.885612 169.060501,45.924606 169.115051,46.120720 
	C169.297256,46.641640 169.521759,46.872112 169.843094,47.008240 
z"/>
<path fill="#DDB13D" opacity="1.000000" stroke="none" 
	d="
M153.000000,58.009003 
	C151.676117,58.003784 150.351135,57.961849 149.028564,58.000874 
	C146.130585,58.086388 145.663971,56.615227 146.439148,54.181156 
	C147.332153,51.377056 148.131439,48.543114 148.941971,45.313820 
	C148.912521,44.905514 148.950577,44.951725 149.169647,44.863533 
	C149.584824,44.493111 149.780899,44.210888 149.976974,43.928665 
	C150.193359,43.680576 150.409744,43.432491 151.281708,43.114239 
	C153.285706,43.010712 154.634125,42.977348 155.940002,43.351284 
	C155.598099,46.505520 155.298752,49.252457 154.625519,52.079903 
	C153.834427,54.109943 153.417221,56.059475 153.000000,58.009003 
z"/>
<path fill="#3B82AE" opacity="1.000000" stroke="none" 
	d="
M5.056642,95.011627 
	C5.048490,97.709854 5.040339,100.408081 5.030448,103.971878 
	C5.040564,106.224892 5.052418,107.612350 5.046623,109.465271 
	C5.362631,117.304970 5.696289,124.679184 6.032687,132.113983 
	C7.832658,131.679184 9.382782,131.304749 11.055305,131.066711 
	C11.177705,131.203125 11.424620,131.474014 11.424622,131.474014 
	C9.228802,133.933273 7.032981,136.392532 4.048477,139.735107 
	C4.048477,119.825661 4.048477,100.876762 4.319027,81.463074 
	C4.589577,80.998276 5.000006,80.997559 5.000153,81.374313 
	C5.015121,82.504257 5.029941,83.257454 5.028963,84.467415 
	C5.027656,88.286659 5.042149,91.649147 5.056642,95.011627 
z"/>
<path fill="#90B071" opacity="1.000000" stroke="none" 
	d="
M158.969101,120.123589 
	C158.969101,120.123589 158.699554,120.249214 158.106689,120.170868 
	C157.210983,120.106415 156.908157,120.120300 156.605331,120.134186 
	C156.605331,120.134186 156.292038,120.195740 156.148758,119.777084 
	C155.999298,118.906998 155.993118,118.455551 155.967712,117.706802 
	C155.631897,116.939453 155.315338,116.469421 155.000916,115.565041 
	C155.336670,111.420479 155.670303,107.710266 156.338440,103.947670 
	C158.778931,102.596863 160.884888,101.298439 162.993500,100.399918 
	C162.995789,101.866249 162.995453,102.932671 162.722168,104.245560 
	C161.298477,109.326057 160.147736,114.160095 158.990829,119.276520 
	C158.979477,119.747131 158.974289,119.935364 158.969101,120.123589 
z"/>
<path fill="#DCE7ED" opacity="1.000000" stroke="none" 
	d="
M339.216614,143.195740 
	C338.372314,140.654922 337.846100,138.058899 337.502960,135.438904 
	C337.269653,133.657806 337.292908,131.843094 337.200806,130.030899 
	C335.152222,129.616531 333.355469,129.253113 331.558685,128.889694 
	C331.586548,128.447693 331.614380,128.005707 331.642242,127.563705 
	C336.157318,127.563705 340.672394,127.563705 345.187469,127.563705 
	C345.300934,127.919754 345.414398,128.275803 345.527863,128.631866 
	C343.877869,129.107239 342.227844,129.582626 340.457703,130.092621 
	C340.180145,134.374649 339.896423,138.752487 339.216614,143.195740 
z"/>
<path fill="#D3B443" opacity="1.000000" stroke="none" 
	d="
M171.906616,18.051743 
	C170.110733,21.338396 168.314850,24.625050 165.973602,27.946600 
	C165.428238,27.981499 165.026123,27.963102 165.018097,27.552925 
	C164.004456,22.766079 162.998856,18.389414 162.380432,14.007156 
	C164.509705,14.321362 166.251785,14.641159 168.166443,15.222381 
	C169.528229,16.339783 170.717407,17.195761 171.906616,18.051743 
z"/>
<path fill="#A79A5F" opacity="1.000000" stroke="none" 
	d="
M145.981689,110.983185 
	C145.640625,109.558357 145.299561,108.133530 145.289917,106.051544 
	C145.748978,103.257454 145.876617,101.120537 146.348801,99.023956 
	C148.462631,99.044495 150.231918,99.024689 152.001511,99.451942 
	C151.997711,101.384064 152.298355,102.950859 151.926468,104.337257 
	C151.138306,107.275688 149.999527,110.120064 148.646042,113.004105 
	C147.810608,113.038666 147.333664,113.072136 146.856705,113.105606 
	C146.856705,113.105606 146.897079,113.006081 146.917023,112.746262 
	C146.618546,111.985352 146.300125,111.484268 145.981689,110.983185 
z"/>
<path fill="#6FBE7B" opacity="1.000000" stroke="none" 
	d="
M6.016039,12.587405 
	C6.009027,14.055692 5.998132,15.122684 5.719834,16.346468 
	C5.043162,14.679982 4.633893,12.856706 4.224623,11.033430 
	C4.175295,9.629838 4.125968,8.226245 4.321550,6.268890 
	C4.800579,5.484196 4.946539,5.206855 5.004342,4.883102 
	C22.683035,4.896074 40.361729,4.909045 58.494324,5.033747 
	C57.200130,5.430417 55.453262,5.953496 53.703747,5.962509 
	C40.076241,6.032715 26.445755,6.151954 12.821725,5.924500 
	C8.138159,5.846307 5.971067,7.580776 6.016039,12.587405 
z"/>
<path fill="#A8A251" opacity="1.000000" stroke="none" 
	d="
M167.993866,14.960955 
	C166.251785,14.641159 164.509705,14.321362 162.054688,13.857430 
	C159.972137,13.424314 158.602524,13.135332 157.196259,12.544795 
	C157.134338,11.839096 157.109055,11.434953 157.324371,10.805946 
	C156.720779,9.397978 155.876602,8.214871 154.665680,7.007493 
	C153.813232,6.930027 153.327560,6.876836 152.841873,6.823645 
	C155.748840,6.338933 158.655823,5.854220 162.051285,5.636355 
	C162.539780,5.903203 162.979767,5.996832 162.979767,5.996832 
	C162.979767,5.996832 162.996918,5.992221 163.033112,6.346484 
	C164.710846,9.454149 166.352356,12.207551 167.993866,14.960955 
z"/>
<path fill="#9D5C78" opacity="1.000000" stroke="none" 
	d="
M301.000916,106.051483 
	C297.825073,105.944595 294.649200,105.837715 291.440063,105.135086 
	C295.372467,104.094749 299.221863,103.533096 298.059570,97.928169 
	C300.022797,98.622841 301.985992,99.317513 304.318115,100.005661 
	C304.814026,101.655334 304.941010,103.311539 304.702026,105.281387 
	C303.224304,105.747177 302.112610,105.899330 301.000916,106.051483 
z"/>
<path fill="#5568B0" opacity="1.000000" stroke="none" 
	d="
M280.937958,110.430099 
	C285.858856,112.620911 290.781555,115.172752 295.889160,118.059402 
	C288.087158,119.824829 283.862488,117.702469 280.937958,110.430099 
z"/>
<path fill="#E26D53" opacity="1.000000" stroke="none" 
	d="
M152.534332,6.884946 
	C153.327560,6.876836 153.813232,6.930027 154.685059,7.339873 
	C155.742050,8.807953 156.412918,9.919380 157.083771,11.030807 
	C157.109055,11.434953 157.134338,11.839096 157.132294,12.941353 
	C157.070877,14.433316 157.036774,15.227165 156.758270,16.170092 
	C156.010132,16.879398 155.506363,17.439627 154.959961,17.650272 
	C152.951263,15.536098 150.985168,13.771510 149.019089,12.006922 
	C149.035248,11.576443 149.051422,11.145964 149.047913,10.393188 
	C149.028259,10.070891 149.008850,10.014790 149.263519,9.931131 
	C149.801559,9.655854 149.965881,9.390500 150.011154,9.051410 
	C150.749695,8.349689 151.488235,7.647968 152.534332,6.884946 
z"/>
<path fill="#82A382" opacity="1.000000" stroke="none" 
	d="
M171.822525,85.035294 
	C171.864502,92.157951 172.301483,99.309891 171.776779,106.390549 
	C171.525864,109.776581 169.451233,113.027458 167.764664,116.338684 
	C167.326721,116.337830 166.996841,115.996826 167.047089,115.621521 
	C167.410355,113.513969 167.723404,111.781738 168.414856,109.985931 
	C172.755569,107.069778 170.895798,103.482651 170.044342,99.627411 
	C170.053635,98.180382 170.060837,97.128418 170.270920,95.948517 
	C170.722214,95.601074 170.882050,95.329445 170.962769,94.551193 
	C170.959229,91.063911 170.946243,88.031143 170.966797,84.990440 
	C171.000320,84.982513 171.068924,84.989098 171.257446,84.998581 
	C171.445984,85.008064 171.822525,85.035294 171.822525,85.035294 
z"/>
<path fill="#B3A469" opacity="1.000000" stroke="none" 
	d="
M146.004272,98.983612 
	C145.876617,101.120537 145.748978,103.257454 145.359039,105.679764 
	C145.028046,91.292404 144.959366,76.619667 144.975189,61.487503 
	C145.371552,65.376282 145.683395,69.724495 145.995148,74.964020 
	C146.001099,77.568817 146.007141,79.282295 146.006439,81.445953 
	C146.003769,84.592499 146.007843,87.288857 146.007645,90.435852 
	C146.003677,93.585533 146.003983,96.284569 146.004272,98.983612 
z"/>
<path fill="#4AA08E" opacity="1.000000" stroke="none" 
	d="
M5.000006,80.997559 
	C5.000006,80.997559 4.589577,80.998276 4.384377,80.998459 
	C4.141840,66.641754 4.104501,52.284874 4.338923,37.464111 
	C4.610683,37.000233 5.013400,37.002136 5.013644,37.446209 
	C5.030350,40.262131 5.046813,42.633980 5.050062,45.449173 
	C5.043958,48.258884 5.051066,50.625252 5.058173,52.991619 
	C5.045312,55.365513 5.032451,57.739410 5.032981,60.558098 
	C5.038588,64.695557 5.030802,68.388229 5.022721,72.985321 
	C5.014953,76.259010 5.007479,78.628281 5.000006,80.997559 
z"/>
<path fill="#5DAF7D" opacity="1.000000" stroke="none" 
	d="
M86.324890,29.645554 
	C85.398300,29.662779 84.500626,29.342798 83.307480,28.627144 
	C82.347557,26.482086 81.683105,24.732704 80.980003,22.641232 
	C79.631111,21.195602 78.320869,20.092062 77.010628,18.988522 
	C76.713539,17.482294 76.416451,15.976066 76.135925,14.083035 
	C81.553841,17.592825 84.738197,22.938055 86.324890,29.645554 
z"/>
<path fill="#94A66B" opacity="1.000000" stroke="none" 
	d="
M168.166443,15.222380 
	C166.352356,12.207551 164.710846,9.454149 163.038208,6.353596 
	C168.762802,7.557360 171.406784,11.591125 171.949402,17.659580 
	C170.717407,17.195761 169.528229,16.339783 168.166443,15.222380 
z"/>
<path fill="#5CA77F" opacity="1.000000" stroke="none" 
	d="
M5.013400,37.002136 
	C5.013400,37.002136 4.610683,37.000233 4.409339,37.000366 
	C4.158653,28.651155 4.109310,20.301805 4.142296,11.492943 
	C4.633893,12.856706 5.043162,14.679982 5.715263,16.746338 
	C5.981671,17.157724 5.985246,17.326029 5.990370,18.163757 
	C5.994039,20.223038 5.996159,21.612892 5.994674,23.334171 
	C5.992425,24.107473 5.993783,24.549351 5.982565,25.399101 
	C5.666444,28.537207 5.362902,31.267437 5.046463,34.373047 
	C5.026845,35.499668 5.020123,36.250900 5.013400,37.002136 
z"/>
<path fill="#C6BA5E" opacity="1.000000" stroke="none" 
	d="
M155.982559,42.943985 
	C154.634125,42.977348 153.285706,43.010712 151.531784,43.057922 
	C157.140457,38.915733 163.170486,39.637703 169.084412,45.548767 
	C167.316650,45.006668 165.465652,44.127724 162.954529,42.960213 
	C160.190460,42.762424 158.086502,42.853207 155.982559,42.943985 
z"/>
<path fill="#3B82AE" opacity="1.000000" stroke="none" 
	d="
M21.442242,121.407944 
	C18.382788,124.736862 15.175973,127.918930 11.696889,131.287506 
	C11.424620,131.474014 11.177705,131.203125 11.117493,130.721741 
	C14.367052,127.154144 17.676825,124.067909 20.986593,120.981674 
	C20.986591,120.981667 21.294882,121.261093 21.442242,121.407944 
z"/>
<path fill="#7B8A5B" opacity="1.000000" stroke="none" 
	d="
M171.902878,84.570213 
	C171.822525,85.035294 171.445984,85.008064 171.237732,84.531509 
	C170.995270,74.700233 170.961044,65.345512 170.926804,55.990788 
	C170.958191,54.891922 170.989578,53.793053 171.088104,52.285995 
	C171.438797,56.789364 171.854752,61.697777 171.971542,66.613304 
	C172.110031,72.440712 171.990784,78.274254 171.902878,84.570213 
z"/>
<path fill="#5568B0" opacity="1.000000" stroke="none" 
	d="
M301.216095,106.332672 
	C302.112610,105.899330 303.224304,105.747177 304.636658,105.701141 
	C304.616028,111.087227 303.367157,115.821075 297.413513,118.017059 
	C298.561920,116.339973 300.080231,114.653816 301.554810,112.930252 
	C303.374237,110.803604 303.986389,108.669670 301.216095,106.332672 
z"/>
<path fill="#8F996E" opacity="1.000000" stroke="none" 
	d="
M146.901093,113.440063 
	C147.333664,113.072136 147.810608,113.038666 148.789429,113.299576 
	C150.868164,115.168411 151.944656,117.930092 154.998779,115.999382 
	C155.315338,116.469421 155.631897,116.939453 155.644684,117.848038 
	C154.443497,118.556839 153.546097,118.827072 152.648697,119.097313 
	C150.747635,117.323044 148.846558,115.548782 146.901093,113.440063 
z"/>
<path fill="#5DAF7D" opacity="1.000000" stroke="none" 
	d="
M75.117393,12.590431 
	C74.169998,12.918692 73.028343,12.954144 71.460236,12.988834 
	C69.441467,11.347311 67.849152,9.706548 66.232307,7.698181 
	C69.112900,8.986259 72.018021,10.641941 75.117393,12.590431 
z"/>
<path fill="#ECF9F9" opacity="1.000000" stroke="none" 
	d="
M283.862762,99.901199 
	C283.528748,100.888054 282.923431,101.701523 281.825531,102.739647 
	C280.959839,102.961456 280.586792,102.958626 280.213715,102.955795 
	C280.169678,101.584587 280.125610,100.213379 280.361969,98.439804 
	C280.642365,98.037437 281.062317,98.005447 281.062317,98.005447 
	C281.905365,98.579575 282.748444,99.153702 283.862762,99.901199 
z"/>
<path fill="#82A382" opacity="1.000000" stroke="none" 
	d="
M159.360992,120.200668 
	C158.974289,119.935364 158.979477,119.747131 159.348206,119.239342 
	C162.140091,117.945457 164.568466,116.971138 166.996841,115.996826 
	C166.996841,115.996826 167.326721,116.337830 167.468719,116.530319 
	C164.991440,117.907791 162.372162,119.092773 159.360992,120.200668 
z"/>
<path fill="#CDDAE2" opacity="1.000000" stroke="none" 
	d="
M280.079102,49.432961 
	C280.333862,52.771233 280.497162,56.564220 280.421387,60.683022 
	C280.117371,57.301785 280.052521,53.594727 280.079102,49.432961 
z"/>
<path fill="#4E73D0" opacity="1.000000" stroke="none" 
	d="
M304.797302,95.399948 
	C304.519836,94.099304 304.387299,92.426796 304.441101,90.508926 
	C304.732391,91.851738 304.837311,93.439919 304.797302,95.399948 
z"/>
<path fill="#39B09B" opacity="1.000000" stroke="none" 
	d="
M81.314560,54.955261 
	C81.501205,54.129230 81.957710,53.133892 82.779945,52.116081 
	C82.625259,52.991058 82.104843,53.888504 81.314560,54.955261 
z"/>
<path fill="#82A382" opacity="1.000000" stroke="none" 
	d="
M152.922302,119.336311 
	C153.546097,118.827072 154.443497,118.556839 155.663910,118.145355 
	C155.993118,118.455551 155.999298,118.906998 156.010590,119.697128 
	C155.075790,119.882324 154.135849,119.728813 152.922302,119.336311 
z"/>
<path fill="#3B82AE" opacity="1.000000" stroke="none" 
	d="
M84.019684,108.017197 
	C83.557053,108.638954 83.094414,109.260712 82.334930,109.960373 
	C82.038086,110.038269 81.913635,109.907684 81.965103,109.568382 
	C82.606766,108.749786 83.196960,108.270485 83.845169,107.847809 
	C83.903183,107.904434 84.019691,108.017197 84.019684,108.017197 
z"/>
<path fill="#CDDAE2" opacity="1.000000" stroke="none" 
	d="
M281.044067,97.649338 
	C281.062317,98.005447 280.642365,98.037437 280.431824,98.033005 
	C280.160461,96.943596 280.099640,95.858620 280.139313,94.376167 
	C280.501801,95.083534 280.763824,96.188385 281.044067,97.649338 
z"/>
<path fill="#CDDAE2" opacity="1.000000" stroke="none" 
	d="
M280.096069,70.376358 
	C280.334930,71.166039 280.479462,72.351936 280.408203,73.772873 
	C280.128845,72.929459 280.065277,71.851013 280.096069,70.376358 
z"/>
<path fill="#3B82AE" opacity="1.000000" stroke="none" 
	d="
M85.178101,106.777184 
	C85.125969,106.319473 85.313179,105.762215 85.850555,105.050262 
	C86.200706,104.895569 86.463829,104.971710 86.463829,104.971710 
	C86.115036,105.540352 85.766243,106.108994 85.178101,106.777184 
z"/>
<path fill="#CDDAE2" opacity="1.000000" stroke="none" 
	d="
M280.123230,103.286835 
	C280.586792,102.958626 280.959839,102.961456 281.612183,102.959663 
	C281.644867,103.495949 281.398315,104.036865 280.845337,104.857391 
	C280.538879,105.137001 280.098602,104.985878 280.098602,104.985878 
	C280.076660,104.529877 280.054718,104.073875 280.123230,103.286835 
z"/>
<path fill="#36A6AB" opacity="1.000000" stroke="none" 
	d="
M88.434143,101.917282 
	C88.339920,101.189949 88.528038,100.239357 89.052063,99.103447 
	C89.164146,99.843430 88.940323,100.768715 88.434143,101.917282 
z"/>
<path fill="#36A6AB" opacity="1.000000" stroke="none" 
	d="
M86.663177,104.703613 
	C86.463829,104.971710 86.200706,104.895569 86.071533,104.847336 
	C86.205643,104.301453 86.468933,103.803810 87.024826,103.249191 
	C87.165794,103.606651 87.014168,104.021088 86.663177,104.703613 
z"/>
<path fill="#36A6AB" opacity="1.000000" stroke="none" 
	d="
M89.520798,98.400536 
	C89.354279,97.912308 89.466438,97.188004 89.896439,96.262360 
	C90.076012,96.762169 89.937744,97.463318 89.520798,98.400536 
z"/>
<path fill="#39B09B" opacity="1.000000" stroke="none" 
	d="
M83.351990,51.948364 
	C83.270721,51.527523 83.444664,50.936214 83.907379,50.203346 
	C83.999840,50.633820 83.803520,51.205860 83.351990,51.948364 
z"/>
<path fill="#8F996E" opacity="1.000000" stroke="none" 
	d="
M145.925430,111.299675 
	C146.300125,111.484268 146.618546,111.985352 146.919098,112.799911 
	C146.557205,112.614319 146.213196,112.115242 145.925430,111.299675 
z"/>
<path fill="#B64F5E" opacity="1.000000" stroke="none" 
	d="
M165.026123,27.963102 
	C165.026123,27.963102 165.428238,27.981499 165.618958,28.040001 
	C165.758057,28.387150 165.682571,28.669409 165.429962,29.104126 
	C165.276733,29.262976 165.080460,29.073925 165.018005,28.748915 
	C164.955536,28.423904 165.026123,27.963102 165.026123,27.963102 
z"/>
<path fill="#D0A948" opacity="1.000000" stroke="none" 
	d="
M149.709106,43.986439 
	C149.780899,44.210888 149.584824,44.493111 149.140015,44.864113 
	C149.074600,44.649994 149.257919,44.347103 149.709106,43.986439 
z"/>
<path fill="#C6BA5E" opacity="1.000000" stroke="none" 
	d="
M169.838409,46.753731 
	C169.521759,46.872112 169.297256,46.641640 169.142853,46.070938 
	C169.355301,46.049767 169.594513,46.274490 169.838409,46.753731 
z"/>
<path fill="#B64F5E" opacity="1.000000" stroke="none" 
	d="
M149.757446,9.094517 
	C149.965881,9.390500 149.801559,9.655854 149.293060,9.929720 
	C149.213165,9.720517 149.358444,9.429070 149.757446,9.094517 
z"/>
<path fill="#82A382" opacity="1.000000" stroke="none" 
	d="
M156.778412,120.386734 
	C156.908157,120.120300 157.210983,120.106415 157.969284,120.114021 
	C157.933670,120.303436 157.442581,120.471367 156.778412,120.386734 
z"/>
<path fill="#5CA77F" opacity="1.000000" stroke="none" 
	d="
M4.721939,4.920285 
	C4.946539,5.206855 4.800579,5.484196 4.370647,5.849764 
	C4.263068,5.642089 4.351302,5.299778 4.721939,4.920285 
z"/>
<path fill="#7B8A5B" opacity="1.000000" stroke="none" 
	d="
M171.230927,51.636578 
	C170.969681,51.621330 170.760757,51.380550 170.790100,51.082130 
	C171.028351,51.024487 171.283234,51.411049 171.230927,51.636578 
z"/>
<path fill="#5568B0" opacity="1.000000" stroke="none" 
	d="
M280.664764,109.343697 
	C280.891235,109.356575 280.962677,109.537376 280.948761,109.889145 
	C280.687195,109.930092 280.569336,109.747269 280.664764,109.343697 
z"/>
<path fill="#3B82AE" opacity="1.000000" stroke="none" 
	d="
M83.927719,106.972603 
	C83.927719,106.972603 84.408394,106.957390 84.648659,106.951279 
	C84.907410,107.309204 84.767426,107.595840 84.244324,107.911140 
	C84.019691,108.017197 83.903183,107.904434 83.901138,107.647156 
	C83.899101,107.389885 83.927719,106.972603 83.927719,106.972603 
z"/>
<path fill="#5568B0" opacity="1.000000" stroke="none" 
	d="
M280.035889,105.253990 
	C280.098602,104.985878 280.538879,105.137001 280.771118,105.150116 
	C280.878967,105.411743 280.712524,105.627853 280.331909,105.925880 
	C280.097626,105.867508 280.035431,105.694809 280.035889,105.253990 
z"/>
<path fill="#36A6AB" opacity="1.000000" stroke="none" 
	d="
M81.161560,63.572617 
	C80.918045,63.649639 80.592232,63.441219 80.183624,62.944641 
	C80.426971,62.866714 80.753113,63.076942 81.161560,63.572617 
z"/>
<path fill="#36A6AB" opacity="1.000000" stroke="none" 
	d="
M82.214355,64.503189 
	C81.966560,64.614021 81.635414,64.456604 81.230118,64.019821 
	C81.480988,63.905281 81.806000,64.070099 82.214355,64.503189 
z"/>
<path fill="#36A6AB" opacity="1.000000" stroke="none" 
	d="
M87.473694,103.181976 
	C87.361412,102.951843 87.507042,102.621712 87.919846,102.200562 
	C88.035210,102.433693 87.883408,102.757828 87.473694,103.181976 
z"/>
<path fill="#36A6AB" opacity="1.000000" stroke="none" 
	d="
M83.231590,65.500984 
	C82.975723,65.605103 82.646545,65.439514 82.268005,64.985748 
	C82.531853,64.875473 82.845070,65.053375 83.231590,65.500984 
z"/>
<path fill="#36A6AB" opacity="1.000000" stroke="none" 
	d="
M84.231277,66.501411 
	C83.974533,66.605850 83.645523,66.439781 83.267776,65.985367 
	C83.532364,65.874985 83.845695,66.052948 84.231277,66.501411 
z"/>
<path fill="#94A66B" opacity="1.000000" stroke="none" 
	d="
M162.899933,5.881712 
	C162.979767,5.996832 162.539780,5.903203 162.434845,5.870108 
	C162.469833,5.651166 162.633224,5.627693 162.899933,5.881712 
z"/>
<path fill="#C1686A" opacity="1.000000" stroke="none" 
	d="
M297.914490,97.646713 
	C299.221863,103.533096 295.372467,104.094749 291.139893,104.841629 
	C290.207550,103.681061 289.542053,102.218216 289.222229,100.245300 
	C290.063293,98.928162 290.558746,98.121094 291.054169,97.314018 
	C293.292572,97.331093 295.530975,97.348167 297.914490,97.646713 
z"/>
<path fill="#ECF9F9" opacity="1.000000" stroke="none" 
	d="
M286.906708,98.832657 
	C286.506439,98.930756 286.106140,99.028847 285.401764,99.187180 
	C286.233826,98.520309 287.370026,97.793190 288.834808,97.320908 
	C289.163391,97.575729 289.015320,97.993370 288.714966,97.985153 
	C287.911957,98.262177 287.409332,98.547417 286.906708,98.832657 
z"/>
<path fill="#9D5C78" opacity="1.000000" stroke="none" 
	d="
M289.015320,97.993370 
	C289.015320,97.993370 289.163391,97.575729 289.242493,97.368851 
	C289.707977,97.175392 290.094360,97.188812 290.767456,97.258133 
	C290.558746,98.121094 290.063293,98.928162 289.300385,99.855362 
	C289.032898,99.975494 288.818054,100.081078 288.837585,99.745720 
	C288.909821,98.938034 288.962585,98.465698 289.015320,97.993370 
z"/>
<path fill="#000203" opacity="1.000000" stroke="none" 
	d="
M57.652908,74.812866 
	C60.666100,76.632660 63.332390,78.473717 66.154488,80.888748 
	C66.573723,81.916069 66.837151,82.369408 67.141861,83.123566 
	C67.248703,83.615906 67.314255,83.807426 67.293488,84.369148 
	C67.276375,85.488289 67.345581,86.237228 67.329453,87.331924 
	C67.180908,88.148254 67.117706,88.618828 66.818085,89.315331 
	C65.196365,91.559845 63.811081,93.578438 62.284916,95.628006 
	C62.144039,95.658981 61.925030,95.846764 61.508080,95.897430 
	C58.319485,96.338425 55.553040,97.014687 52.775204,97.065285 
	C44.532681,97.215416 36.285667,97.119049 27.539131,97.119049 
	C27.539131,89.114883 27.539131,81.972397 27.539131,74.829903 
	C27.789268,74.786041 28.039406,74.742188 28.975164,74.724564 
	C30.098190,74.672226 30.535591,74.593651 30.972994,74.515076 
	C35.024929,74.565331 39.076862,74.615585 44.030117,74.727295 
	C48.602104,74.717346 52.272770,74.645927 55.943436,74.574509 
	C56.397625,74.661041 56.851814,74.747581 57.652908,74.812866 
z"/>
<path fill="#35AAB1" opacity="1.000000" stroke="none" 
	d="
M5.000153,81.374313 
	C5.007479,78.628281 5.014953,76.259010 5.036340,73.445862 
	C10.407994,72.348167 15.757595,71.368805 21.128326,71.234512 
	C22.786837,71.193047 24.502909,73.453873 26.520000,75.299362 
	C26.812304,81.247986 26.777227,86.557793 26.508167,91.558205 
	C26.007257,87.878975 25.740334,84.509155 25.473412,81.139328 
	C25.072676,80.904419 24.671940,80.669518 24.271204,80.434616 
	C22.454929,85.460663 19.872719,85.469704 16.360975,82.864243 
	C15.331739,82.100616 13.275179,82.509689 11.729979,82.703781 
	C9.482317,82.986099 7.271367,83.560692 5.044762,84.010651 
	C5.029941,83.257454 5.015121,82.504257 5.000153,81.374313 
z"/>
<path fill="#2A7990" opacity="1.000000" stroke="none" 
	d="
M26.742149,91.867607 
	C26.777227,86.557793 26.812304,81.247986 26.813547,75.472130 
	C26.779716,75.006088 27.155519,74.896042 27.347324,74.862976 
	C27.539131,81.972397 27.539131,89.114883 27.539131,97.119049 
	C36.285667,97.119049 44.532681,97.215416 52.775204,97.065285 
	C55.553040,97.014687 58.319485,96.338425 61.522602,96.185013 
	C61.960716,96.613617 61.967361,96.805313 61.974007,96.997017 
	C58.744930,97.351616 55.521172,97.939301 52.285686,98.013184 
	C45.150528,98.176109 38.009453,98.080017 30.001905,98.069427 
	C28.336061,95.988701 27.539104,93.928154 26.742149,91.867607 
z"/>
<path fill="#2A7990" opacity="1.000000" stroke="none" 
	d="
M55.606785,74.369736 
	C52.272770,74.645927 48.602104,74.717346 44.491943,74.659538 
	C47.791676,74.408531 51.530903,74.286751 55.606785,74.369736 
z"/>
<path fill="#2A7990" opacity="1.000000" stroke="none" 
	d="
M30.807985,74.365166 
	C30.535591,74.593651 30.098190,74.672226 29.344212,74.630173 
	C29.566084,74.411453 30.104530,74.313354 30.807985,74.365166 
z"/>
<path fill="#329BC5" opacity="1.000000" stroke="none" 
	d="
M83.672485,106.774818 
	C83.927719,106.972603 83.899101,107.389885 83.843124,107.590530 
	C83.196960,108.270485 82.606766,108.749786 81.903030,109.502945 
	C79.119377,111.188248 76.449272,112.599686 73.064590,114.011810 
	C71.572060,114.357277 70.794098,114.702065 70.016129,115.046860 
	C69.551170,115.359497 69.086212,115.672142 68.018623,115.841103 
	C65.639526,112.424370 63.790730,109.798317 59.417530,112.553444 
	C58.305103,113.254280 56.257614,112.346199 54.647533,112.401939 
	C43.831959,112.776306 33.018604,113.214745 22.203537,113.605011 
	C21.954605,113.613991 21.694050,113.300934 21.335348,113.071991 
	C21.784855,111.938255 22.238306,110.794563 22.361263,110.484436 
	C16.508549,109.982086 10.786411,109.490944 5.064273,108.999802 
	C5.052418,107.612350 5.040564,106.224892 5.046626,104.421539 
	C7.378359,103.210655 9.647340,102.194176 12.024667,101.712906 
	C13.236394,101.467606 14.823033,101.876465 15.926374,102.524193 
	C18.914278,104.278305 21.503794,107.705544 25.162495,103.354828 
	C25.751358,102.654594 27.690235,103.016548 29.005449,103.012291 
	C36.636696,102.987610 44.269039,102.928703 51.898960,103.032326 
	C55.398430,103.079849 58.601776,102.980843 62.127148,105.253860 
	C64.548653,106.815155 69.357971,105.058228 72.969719,104.221924 
	C74.713150,103.818222 76.113823,102.035301 77.257523,104.912140 
	C77.362633,105.176537 78.888428,104.692627 79.642059,104.923424 
	C80.946884,105.323036 82.163582,106.010384 83.672485,106.774818 
M74.912231,107.277985 
	C74.966293,107.770866 75.020363,108.263748 75.074432,108.756630 
	C75.514404,108.643066 75.954384,108.529503 76.394356,108.415939 
	C76.096725,107.994720 75.799095,107.573509 74.912231,107.277985 
z"/>
<path fill="#34A5B7" opacity="1.000000" stroke="none" 
	d="
M67.379814,83.998955 
	C67.314255,83.807426 67.248703,83.615906 67.163780,82.819778 
	C67.137581,81.808868 67.130753,81.402580 67.123917,80.996284 
	C68.709045,76.791779 71.779388,75.450211 76.084381,76.122635 
	C77.438904,76.334206 78.967735,76.235069 80.271683,75.821091 
	C85.060410,74.300766 88.332382,75.849930 89.326180,80.788048 
	C89.934662,83.811546 89.798965,86.984810 89.992004,90.546326 
	C86.961090,92.643021 83.935654,94.284210 80.326393,96.242096 
	C80.483452,93.925804 80.596611,92.257042 80.738579,90.163338 
	C75.786613,91.829430 71.248573,93.356255 66.346649,94.932899 
	C65.982758,94.982727 65.957405,94.957138 65.999115,94.585190 
	C66.378723,92.505302 66.716614,90.797356 67.054504,89.089409 
	C67.117706,88.618828 67.180908,88.148254 67.515137,87.122559 
	C67.650719,85.711273 67.515266,84.855118 67.379814,83.998955 
z"/>
<path fill="#35A5B9" opacity="1.000000" stroke="none" 
	d="
M26.508165,91.558205 
	C27.539104,93.928154 28.336061,95.988701 29.529638,98.099228 
	C27.239620,100.125229 26.219362,98.340103 25.148935,96.180420 
	C24.435522,94.741020 23.348925,93.486580 22.429348,92.149361 
	C21.321121,93.451355 20.184605,94.730820 19.120087,96.067619 
	C18.749653,96.532799 18.557257,97.139755 17.983538,98.276276 
	C14.723412,93.213722 10.094303,95.133469 5.476531,95.007645 
	C5.042149,91.649147 5.027656,88.286659 5.028963,84.467415 
	C7.271367,83.560692 9.482317,82.986099 11.729979,82.703781 
	C13.275179,82.509689 15.331739,82.100616 16.360975,82.864243 
	C19.872719,85.469704 22.454929,85.460663 24.271204,80.434616 
	C24.671940,80.669518 25.072676,80.904419 25.473412,81.139328 
	C25.740334,84.509155 26.007257,87.878975 26.508165,91.558205 
z"/>
<path fill="#34A5B7" opacity="1.000000" stroke="none" 
	d="
M62.351578,96.997284 
	C61.967361,96.805313 61.960716,96.613617 61.939552,96.134338 
	C61.925030,95.846764 62.144039,95.658981 62.650475,95.651176 
	C64.090408,95.414627 65.023903,95.185883 65.957405,94.957138 
	C65.957405,94.957138 65.982758,94.982727 65.995483,94.995834 
	C64.915192,95.671814 63.822170,96.334686 62.351578,96.997284 
z"/>
<path fill="#000504" opacity="1.000000" stroke="none" 
	d="
M56.503544,29.223890 
	C61.200668,32.210239 63.644524,36.257328 62.420486,42.408371 
	C62.328705,42.828854 62.315136,42.888435 62.277618,42.888477 
	C61.821465,43.936600 61.402824,44.984680 60.678291,46.467743 
	C60.196156,47.246349 60.019920,47.589970 59.843681,47.933586 
	C59.843681,47.933586 59.942169,47.934982 59.664581,47.964752 
	C59.191494,48.295464 58.995998,48.596401 58.800499,48.897335 
	C58.800499,48.897335 58.833111,48.836945 58.800987,48.823910 
	C53.637314,49.574501 48.527645,50.658421 43.368004,51.010971 
	C38.286430,51.358192 33.154217,50.964214 27.619467,50.422470 
	C27.127947,48.297878 27.061184,46.646271 27.079384,44.534943 
	C27.172268,39.074512 27.180187,34.073795 27.410305,29.019867 
	C27.632507,28.966654 27.992636,28.685356 28.457214,28.752735 
	C38.115711,28.954706 47.309628,29.089298 56.503544,29.223890 
z"/>
<path fill="#3AB994" opacity="1.000000" stroke="none" 
	d="
M26.994419,44.994659 
	C27.061184,46.646271 27.127947,48.297878 27.162632,50.360409 
	C24.136360,51.832676 21.198196,53.527699 18.134117,53.798607 
	C14.098088,54.155457 9.963131,53.393394 5.464441,53.052013 
	C5.051066,50.625252 5.043958,48.258884 5.425998,45.445469 
	C9.770226,43.381821 13.652092,41.752357 18.142500,43.156193 
	C21.004957,44.051079 24.037912,44.400604 26.994419,44.994659 
z"/>
<path fill="#4FC379" opacity="1.000000" stroke="none" 
	d="
M5.998280,23.002747 
	C5.996159,21.612892 5.994039,20.223038 5.996008,18.416210 
	C20.679514,17.724527 35.359535,17.235041 50.038059,17.276562 
	C56.260601,17.294163 62.477547,18.452412 68.701988,19.039762 
	C71.281586,19.283178 73.874153,19.389135 76.735725,19.273064 
	C78.320869,20.092062 79.631111,21.195602 80.756187,22.928493 
	C79.513641,23.990772 78.449402,24.814636 77.399940,24.796225 
	C66.783333,24.609940 56.161873,24.440922 45.556934,23.943720 
	C38.974903,23.635126 32.427841,22.492983 25.847225,22.282087 
	C22.930567,22.188616 19.231150,19.926115 16.625660,23.998322 
	C15.499946,23.998346 14.749488,23.997913 13.959154,23.701725 
	C13.514103,23.090664 13.108929,22.775362 12.703754,22.460060 
	C12.469322,22.972204 12.234891,23.484348 11.625172,23.997343 
	C10.499308,23.999424 9.748733,24.000654 8.789992,23.742191 
	C7.720645,23.322582 6.859463,23.162664 5.998280,23.002747 
z"/>
<path fill="#39B09B" opacity="1.000000" stroke="none" 
	d="
M60.114510,47.802162 
	C60.019920,47.589970 60.196156,47.246349 60.629013,46.754242 
	C60.718872,46.960743 60.552105,47.315739 60.114510,47.802162 
z"/>
<path fill="#39B09B" opacity="1.000000" stroke="none" 
	d="
M59.063801,48.815697 
	C58.995998,48.596401 59.191494,48.295464 59.653168,47.916847 
	C59.721928,48.137466 59.524513,48.435760 59.063801,48.815697 
z"/>
<path fill="#5568B0" opacity="1.000000" stroke="none" 
	d="
M288.714966,97.985153 
	C288.962585,98.465698 288.909821,98.938034 288.717957,99.741440 
	C288.108337,99.823593 287.637817,99.574677 287.037018,99.079208 
	C287.409332,98.547417 287.911957,98.262177 288.714966,97.985153 
z"/>
<path fill="#2A7990" opacity="1.000000" stroke="none" 
	d="
M66.935608,80.960945 
	C67.130753,81.402580 67.137581,81.808868 67.122498,82.518951 
	C66.837151,82.369408 66.573723,81.916069 66.337402,81.185005 
	C66.364517,80.907280 66.747284,80.925606 66.935608,80.960945 
z"/>
<path fill="#4ABC7D" opacity="1.000000" stroke="none" 
	d="
M17.000916,23.997864 
	C19.231150,19.926115 22.930567,22.188616 25.847225,22.282087 
	C32.427841,22.492983 38.974903,23.635126 45.556934,23.943720 
	C56.161873,24.440922 66.783333,24.609940 77.399940,24.796225 
	C78.449402,24.814636 79.513641,23.990772 80.794838,23.270582 
	C81.683105,24.732704 82.347557,26.482086 83.016327,28.606327 
	C74.491432,25.487673 65.995483,29.340130 56.992268,29.160360 
	C47.309628,29.089298 38.115711,28.954706 28.446606,28.389328 
	C25.959620,22.081802 20.911549,24.615101 17.000916,23.997864 
z"/>
<path fill="#D59F41" opacity="1.000000" stroke="none" 
	d="
M165.018097,27.552925 
	C165.026123,27.963102 164.955536,28.423904 164.920349,28.653870 
	C163.729782,28.790813 162.574402,28.697794 161.142120,27.998217 
	C159.577698,23.601444 158.290176,19.811228 157.002655,16.021011 
	C157.036774,15.227165 157.070877,14.433316 157.168945,13.242908 
	C158.602524,13.135332 159.972137,13.424314 161.667496,13.863020 
	C162.998856,18.389414 164.004456,22.766079 165.018097,27.552925 
z"/>
<path fill="#DD5659" opacity="1.000000" stroke="none" 
	d="
M148.846664,12.368938 
	C150.985168,13.771510 152.951263,15.536098 154.957550,18.054688 
	C154.972488,19.889090 154.947189,20.969492 154.921890,22.049896 
	C146.420822,18.389736 147.514221,19.885469 148.846664,12.368938 
z"/>
<path fill="#D9894C" opacity="1.000000" stroke="none" 
	d="
M155.076691,22.361969 
	C154.947189,20.969492 154.972488,19.889090 155.000183,18.404270 
	C155.506363,17.439627 156.010132,16.879398 156.758270,16.170090 
	C158.290176,19.811228 159.577698,23.601444 160.885727,27.756691 
	C159.014648,26.305830 157.123077,24.489937 155.076691,22.361969 
z"/>
<path fill="#CAA94A" opacity="1.000000" stroke="none" 
	d="
M146.013168,80.995781 
	C146.007141,79.282295 146.001099,77.568817 146.001770,75.427048 
	C148.438950,73.025719 150.869431,71.052666 153.901428,69.039856 
	C154.670670,69.000786 154.838394,69.001465 154.995117,69.404526 
	C154.654221,72.203133 154.324326,74.599350 153.640518,77.038620 
	C150.862122,78.386375 148.437653,79.691078 146.013168,80.995781 
z"/>
<path fill="#CABB47" opacity="1.000000" stroke="none" 
	d="
M155.006104,69.002136 
	C154.838394,69.001465 154.670670,69.000786 154.251312,69.000076 
	C153.999603,68.249947 153.999557,67.499847 154.270279,66.176201 
	C155.694229,63.401516 156.847427,61.200375 158.326141,59.029030 
	C159.768188,59.706367 160.884705,60.353916 162.000763,61.429749 
	C162.001419,63.570576 162.002533,65.283119 161.760345,67.165894 
	C161.343658,67.890541 161.170303,68.444962 160.651993,68.964890 
	C158.540070,68.954308 156.773087,68.978218 155.006104,69.002136 
z"/>
<path fill="#D2B641" opacity="1.000000" stroke="none" 
	d="
M158.000610,58.999237 
	C156.847427,61.200375 155.694229,63.401516 154.272919,65.801086 
	C153.669342,63.621693 153.333908,61.243862 152.999237,58.437519 
	C153.417221,56.059475 153.834427,54.109943 154.758072,52.359741 
	C156.176926,53.372654 157.089371,54.186241 158.001099,55.399792 
	C158.000473,56.866249 158.000534,57.932743 158.000610,58.999237 
z"/>
<path fill="#3393C7" opacity="1.000000" stroke="none" 
	d="
M5.046623,109.465271 
	C10.786411,109.490944 16.508549,109.982086 22.361263,110.484436 
	C22.238306,110.794563 21.784855,111.938255 21.335348,113.071991 
	C21.694050,113.300934 21.954605,113.613991 22.203537,113.605011 
	C33.018604,113.214745 43.831959,112.776306 54.647533,112.401939 
	C56.257614,112.346199 58.305103,113.254280 59.417530,112.553444 
	C63.790730,109.798317 65.639526,112.424370 67.725815,115.863998 
	C64.511826,117.023705 61.015507,118.737350 57.458961,118.873108 
	C47.316242,119.260284 37.148235,118.940208 26.992132,119.061890 
	C25.124462,119.084267 23.265976,119.873428 21.194923,120.645164 
	C17.676825,124.067909 14.367052,127.154144 10.995092,130.585342 
	C9.382782,131.304749 7.832658,131.679184 6.032687,132.113983 
	C5.696289,124.679184 5.362631,117.304970 5.046623,109.465271 
z"/>
<path fill="#3393C7" opacity="1.000000" stroke="none" 
	d="
M70.353607,115.034531 
	C70.794098,114.702065 71.572060,114.357277 72.693817,114.019547 
	C72.255440,114.358490 71.473267,114.690353 70.353607,115.034531 
z"/>
<path fill="#DAC23A" opacity="1.000000" stroke="none" 
	d="
M158.001801,54.999832 
	C157.089371,54.186241 156.176926,53.372654 155.131958,52.279228 
	C155.298752,49.252457 155.598099,46.505520 155.940002,43.351288 
	C158.086502,42.853207 160.190460,42.762424 162.636932,42.825951 
	C163.318436,46.374161 163.657425,49.768070 163.646820,53.544136 
	C161.532074,54.284138 159.766937,54.641987 158.001801,54.999832 
z"/>
<path fill="#BCC567" opacity="1.000000" stroke="none" 
	d="
M170.668289,56.272079 
	C170.961044,65.345512 170.995270,74.700233 171.049210,84.522034 
	C171.068924,84.989098 171.000320,84.982513 170.721252,85.225616 
	C170.008255,86.559158 169.574310,87.649597 169.140381,88.740036 
	C168.778152,88.749962 168.415924,88.759888 168.053696,88.769821 
	C167.701065,87.513206 167.348419,86.256599 166.967087,84.668213 
	C166.291016,83.223846 165.643631,82.111267 164.997711,80.598679 
	C165.000473,79.131836 165.001770,78.065002 165.424637,76.998505 
	C171.109406,77.682915 169.869888,73.874275 169.992279,70.553741 
	C169.995544,67.406075 169.994720,64.708435 169.993896,62.010796 
	C170.132523,60.191658 170.271149,58.372517 170.668289,56.272079 
z"/>
<path fill="#CCC74F" opacity="1.000000" stroke="none" 
	d="
M169.675446,61.981888 
	C169.994720,64.708435 169.995544,67.406075 169.650497,70.496490 
	C166.870972,69.591400 164.437317,68.293533 162.003662,66.995659 
	C162.002533,65.283119 162.001419,63.570576 162.417175,61.429314 
	C164.222076,60.999729 165.610123,60.998871 166.998169,60.998013 
	C167.784454,61.316334 168.570724,61.634659 169.675446,61.981888 
z"/>
<path fill="#D1C543" opacity="1.000000" stroke="none" 
	d="
M166.960419,60.648331 
	C165.610123,60.998871 164.222076,60.999729 162.417633,61.001030 
	C160.884705,60.353916 159.768188,59.706367 158.326141,59.029030 
	C158.000534,57.932743 158.000473,56.866249 158.001099,55.399796 
	C159.766937,54.641987 161.532074,54.284138 163.647339,53.965157 
	C164.972549,56.102234 165.947617,58.200443 166.960419,60.648331 
z"/>
<path fill="#8BB87C" opacity="1.000000" stroke="none" 
	d="
M167.047089,115.621513 
	C164.568466,116.971138 162.140091,117.945457 159.354370,118.956955 
	C160.147736,114.160095 161.298477,109.326057 163.090988,104.287460 
	C165.167328,106.071777 166.601883,108.060638 168.036453,110.049500 
	C167.723404,111.781738 167.410355,113.513969 167.047089,115.621513 
z"/>
<path fill="#9FB26A" opacity="1.000000" stroke="none" 
	d="
M162.990845,100.000000 
	C160.884888,101.298439 158.778931,102.596863 156.062439,103.695488 
	C155.301620,101.995903 155.151321,100.496117 155.044815,98.621994 
	C155.727356,95.832581 156.366119,93.417511 157.331436,90.953018 
	C159.436890,90.602203 161.215790,90.300819 162.995697,90.436905 
	C162.998825,92.915573 163.000946,94.956772 163.002167,97.373230 
	C162.997803,98.498985 162.994324,99.249496 162.990845,100.000000 
z"/>
<path fill="#9F9F65" opacity="1.000000" stroke="none" 
	d="
M155.001038,98.996338 
	C155.151321,100.496117 155.301620,101.995903 155.727936,103.747864 
	C155.670303,107.710266 155.336670,111.420479 155.000916,115.565041 
	C151.944656,117.930092 150.868164,115.168411 149.147919,113.298477 
	C149.999527,110.120064 151.138306,107.275688 151.926468,104.337257 
	C152.298355,102.950859 151.997711,101.384064 152.000900,99.449524 
	C152.000000,99.000046 152.001221,98.998169 152.376160,98.998955 
	C153.501083,98.998611 154.251053,98.997475 155.001038,98.996338 
z"/>
<path fill="#99BE7B" opacity="1.000000" stroke="none" 
	d="
M162.993500,100.399918 
	C162.994324,99.249496 162.997803,98.498985 163.360611,97.413017 
	C165.827393,98.059189 167.934814,99.040825 170.042252,100.022469 
	C170.895798,103.482651 172.755569,107.069778 168.414856,109.985931 
	C166.601883,108.060638 165.167328,106.071777 163.363937,104.041000 
	C162.995453,102.932671 162.995789,101.866249 162.993500,100.399918 
z"/>
<path fill="#B2A058" opacity="1.000000" stroke="none" 
	d="
M146.348801,99.023956 
	C146.003983,96.284569 146.003677,93.585533 146.367126,90.434059 
	C148.819427,88.656250 150.907974,87.330879 152.996307,86.429672 
	C152.664474,90.901939 152.332840,94.950058 152.001221,98.998169 
	C152.001221,98.998169 152.000000,99.000046 152.000610,99.002457 
	C150.231918,99.024689 148.462631,99.044495 146.348801,99.023956 
z"/>
<path fill="#D9894C" opacity="1.000000" stroke="none" 
	d="
M157.324371,10.805945 
	C156.412918,9.919380 155.742050,8.807953 155.051804,7.364146 
	C155.876602,8.214871 156.720779,9.397978 157.324371,10.805945 
z"/>
<path fill="#A6BE71" opacity="1.000000" stroke="none" 
	d="
M170.044342,99.627411 
	C167.934814,99.040825 165.827393,98.059189 163.361511,97.037766 
	C163.000946,94.956772 162.998825,92.915573 163.001938,90.072083 
	C164.336700,87.846527 165.666245,86.423256 166.995789,84.999985 
	C167.348419,86.256599 167.701065,87.513206 168.053696,88.769821 
	C168.415924,88.759888 168.778152,88.749962 169.140381,88.740036 
	C169.574310,87.649597 170.008255,86.559158 170.687714,85.233543 
	C170.946243,88.031143 170.959229,91.063911 170.753479,94.671646 
	C170.272629,95.463249 170.117050,95.739861 170.068039,96.076447 
	C170.060837,97.128418 170.053635,98.180382 170.044342,99.627411 
z"/>
<path fill="#99BE7B" opacity="1.000000" stroke="none" 
	d="
M170.270920,95.948517 
	C170.117050,95.739861 170.272629,95.463249 170.744034,95.126144 
	C170.882050,95.329445 170.722214,95.601074 170.270920,95.948517 
z"/>
<path fill="#BEA751" opacity="1.000000" stroke="none" 
	d="
M152.996521,86.005508 
	C150.907974,87.330879 148.819427,88.656250 146.371399,89.983429 
	C146.007843,87.288857 146.003769,84.592499 146.006439,81.445953 
	C148.437653,79.691078 150.862122,78.386375 153.753235,77.256943 
	C154.421829,77.704781 154.684036,77.893745 155.004517,78.436493 
	C155.001282,80.914719 155.000031,82.955544 154.740143,85.105789 
	C153.986526,85.478653 153.491516,85.742081 152.996521,86.005508 
z"/>
<path fill="#40BD8B" opacity="1.000000" stroke="none" 
	d="
M27.079386,44.534943 
	C24.037912,44.400604 21.004957,44.051079 18.142500,43.156193 
	C13.652092,41.752357 9.770226,43.381821 5.439210,45.002125 
	C5.046813,42.633980 5.030350,40.262131 5.013644,37.446209 
	C5.020123,36.250900 5.026845,35.499668 5.428277,34.373383 
	C12.410325,30.038557 20.723829,33.566681 27.188105,29.073080 
	C27.180187,34.073795 27.172268,39.074512 27.079386,44.534943 
z"/>
<path fill="#48C084" opacity="1.000000" stroke="none" 
	d="
M27.410305,29.019867 
	C20.723829,33.566681 12.410325,30.038557 5.441174,33.997997 
	C5.362902,31.267437 5.666444,28.537207 6.320339,25.399858 
	C7.446514,24.662455 8.222335,24.332170 8.998158,24.001884 
	C9.748733,24.000654 10.499308,23.999424 11.958263,23.998363 
	C13.110772,23.998182 13.554901,23.997831 13.999029,23.997482 
	C14.749488,23.997913 15.499946,23.998346 16.625660,23.998322 
	C20.911549,24.615101 25.959620,22.081802 27.982025,28.321949 
	C27.992636,28.685356 27.632507,28.966654 27.410305,29.019867 
z"/>
<path fill="#4ABC7D" opacity="1.000000" stroke="none" 
	d="
M8.789993,23.742193 
	C8.222335,24.332170 7.446514,24.662455 6.332917,24.991982 
	C5.993783,24.549351 5.992425,24.107473 5.994674,23.334171 
	C6.859463,23.162664 7.720645,23.322582 8.789993,23.742193 
z"/>
<path fill="#2A7990" opacity="1.000000" stroke="none" 
	d="
M65.999115,94.585190 
	C65.023903,95.185883 64.090408,95.414627 62.791351,95.620201 
	C63.811081,93.578438 65.196365,91.559845 66.818085,89.315331 
	C66.716614,90.797356 66.378723,92.505302 65.999115,94.585190 
z"/>
<path fill="#2A7990" opacity="1.000000" stroke="none" 
	d="
M67.293488,84.369148 
	C67.515266,84.855118 67.650719,85.711273 67.600479,86.776810 
	C67.345581,86.237228 67.276375,85.488289 67.293488,84.369148 
z"/>
<path fill="#33A0BF" opacity="1.000000" stroke="none" 
	d="
M75.206848,107.215134 
	C75.799095,107.573509 76.096725,107.994720 76.394356,108.415939 
	C75.954384,108.529503 75.514404,108.643066 75.074432,108.756630 
	C75.020363,108.263748 74.966293,107.770866 75.206848,107.215134 
z"/>
<path fill="#4ABC7D" opacity="1.000000" stroke="none" 
	d="
M13.959154,23.701725 
	C13.554901,23.997831 13.110772,23.998182 12.333551,23.997513 
	C12.234891,23.484348 12.469322,22.972204 12.703754,22.460060 
	C13.108929,22.775362 13.514103,23.090664 13.959154,23.701725 
z"/>
<path fill="#BFB84F" opacity="1.000000" stroke="none" 
	d="
M155.006500,77.999084 
	C154.684036,77.893745 154.421829,77.704781 154.107147,77.213882 
	C154.324326,74.599350 154.654221,72.203133 154.995117,69.404526 
	C156.773087,68.978218 158.540070,68.954308 160.653320,69.393173 
	C160.999527,71.569412 160.999451,73.282875 160.835846,75.305031 
	C158.783707,76.408844 156.895111,77.203964 155.006500,77.999084 
z"/>
<path fill="#C0C457" opacity="1.000000" stroke="none" 
	d="
M160.999390,74.996338 
	C160.999451,73.282875 160.999527,71.569412 160.998260,69.427673 
	C161.170303,68.444962 161.343658,67.890541 161.760345,67.165894 
	C164.437317,68.293533 166.870972,69.591400 169.646423,70.946518 
	C169.869888,73.874275 171.109406,77.682915 165.264008,76.694321 
	C163.454330,75.925316 162.226868,75.460823 160.999390,74.996338 
z"/>
<path fill="#B5B85A" opacity="1.000000" stroke="none" 
	d="
M160.835846,75.305031 
	C162.226868,75.460823 163.454330,75.925316 164.842438,76.693985 
	C165.001770,78.065002 165.000473,79.131836 164.658051,80.748314 
	C161.879578,82.532379 159.442230,83.766800 156.670517,85.000580 
	C155.890366,84.998741 155.444565,84.997559 154.998779,84.996368 
	C155.000031,82.955544 155.001282,80.914719 155.004517,78.436493 
	C156.895111,77.203964 158.783707,76.408844 160.835846,75.305031 
z"/>
<path fill="#ABB863" opacity="1.000000" stroke="none" 
	d="
M157.004883,85.001221 
	C159.442230,83.766800 161.879578,82.532379 164.656586,81.148331 
	C165.643631,82.111267 166.291016,83.223846 166.967087,84.668205 
	C165.666245,86.423256 164.336700,87.846527 163.000931,89.634613 
	C161.215790,90.300819 159.436890,90.602203 157.329773,90.524323 
	C157.002655,88.430443 157.003769,86.715828 157.004883,85.001221 
z"/>
<path fill="#ADA95E" opacity="1.000000" stroke="none" 
	d="
M156.670517,85.000580 
	C157.003769,86.715828 157.002655,88.430443 157.003204,90.573746 
	C156.366119,93.417511 155.727356,95.832581 155.044815,98.621994 
	C154.251053,98.997475 153.501083,98.998611 152.376160,98.998955 
	C152.332840,94.950058 152.664474,90.901939 152.996307,86.429672 
	C153.491516,85.742081 153.986526,85.478653 154.740143,85.105789 
	C155.444565,84.997559 155.890366,84.998741 156.670517,85.000580 
z"/>
</svg>